<svg xmlns="http://www.w3.org/2000/svg" width="64" height="64" viewBox="0 0 64 64">
  <!-- Bear character -->
  <g transform="translate(32,32)">
    <!-- Head -->
    <ellipse cx="0" cy="-2" rx="15" ry="13" fill="#8B4513"/>
    
    <!-- Ears -->
    <ellipse cx="-12" cy="-12" rx="5" ry="6" fill="#8B4513"/>
    <ellipse cx="12" cy="-12" rx="5" ry="6" fill="#8B4513"/>
    <ellipse cx="-12" cy="-11" rx="2.5" ry="3" fill="#DEB887"/>
    <ellipse cx="12" cy="-11" rx="2.5" ry="3" fill="#DEB887"/>
    
    <!-- Eyes -->
    <ellipse cx="-6" cy="-6" rx="3" ry="4" fill="#000"/>
    <ellipse cx="6" cy="-6" rx="3" ry="4" fill="#000"/>
    <ellipse cx="-5" cy="-7" rx="1" ry="1" fill="#ffffff"/>
    <ellipse cx="7" cy="-7" rx="1" ry="1" fill="#ffffff"/>
    
    <!-- Snout -->
    <ellipse cx="0" cy="2" rx="6" ry="5" fill="#DEB887"/>
    
    <!-- Nose -->
    <ellipse cx="0" cy="0" rx="2" ry="1.5" fill="#000"/>
    
    <!-- Mouth -->
    <path d="M0 2 Q-3 6 -5 5" stroke="#333" stroke-width="1.5" fill="none"/>
    <path d="M0 2 Q3 6 5 5" stroke="#333" stroke-width="1.5" fill="none"/>
    
    <!-- Body -->
    <ellipse cx="0" cy="20" rx="14" ry="10" fill="#8B4513"/>
    <ellipse cx="0" cy="22" rx="10" ry="7" fill="#DEB887"/>
    
    <!-- Paws -->
    <ellipse cx="-10" cy="27" rx="3" ry="2" fill="#654321"/>
    <ellipse cx="10" cy="27" rx="3" ry="2" fill="#654321"/>
    
    <!-- Claws -->
    <line x1="-11" y1="26" x2="-11" y2="28" stroke="#333" stroke-width="1"/>
    <line x1="-9" y1="26" x2="-9" y2="28" stroke="#333" stroke-width="1"/>
    <line x1="11" y1="26" x2="11" y2="28" stroke="#333" stroke-width="1"/>
    <line x1="9" y1="26" x2="9" y2="28" stroke="#333" stroke-width="1"/>
  </g>
</svg>