<svg xmlns="http://www.w3.org/2000/svg" width="64" height="64" viewBox="0 0 64 64">
  <!-- Cat character -->
  <g transform="translate(32,32)">
    <!-- Head -->
    <ellipse cx="0" cy="-2" rx="18" ry="16" fill="#ff9500"/>
    
    <!-- Ears -->
    <polygon points="-15,-14 -10,-22 -8,-14" fill="#ff9500"/>
    <polygon points="15,-14 10,-22 8,-14" fill="#ff9500"/>
    <polygon points="-12,-16 -9,-20 -9,-16" fill="#ffb347"/>
    <polygon points="12,-16 9,-20 9,-16" fill="#ffb347"/>
    
    <!-- Eyes -->
    <ellipse cx="-8" cy="-6" rx="4" ry="5" fill="#ffffff"/>
    <ellipse cx="8" cy="-6" rx="4" ry="5" fill="#ffffff"/>
    <ellipse cx="-8" cy="-5" rx="2" ry="3" fill="#000"/>
    <ellipse cx="8" cy="-5" rx="2" ry="3" fill="#000"/>
    <ellipse cx="-7" cy="-6" rx="1" ry="1" fill="#ffffff"/>
    <ellipse cx="9" cy="-6" rx="1" ry="1" fill="#ffffff"/>
    
    <!-- Nose -->
    <polygon points="0,2 -2,4 2,4" fill="#ff69b4"/>
    
    <!-- Mouth -->
    <path d="M0 4 Q-4 8 -8 6" stroke="#333" stroke-width="1.5" fill="none"/>
    <path d="M0 4 Q4 8 8 6" stroke="#333" stroke-width="1.5" fill="none"/>
    
    <!-- Whiskers -->
    <line x1="-18" y1="0" x2="-12" y2="2" stroke="#333" stroke-width="1"/>
    <line x1="-18" y1="4" x2="-12" y2="4" stroke="#333" stroke-width="1"/>
    <line x1="18" y1="0" x2="12" y2="2" stroke="#333" stroke-width="1"/>
    <line x1="18" y1="4" x2="12" y2="4" stroke="#333" stroke-width="1"/>
    
    <!-- Body -->
    <ellipse cx="0" cy="20" rx="12" ry="8" fill="#ff9500"/>
    
    <!-- Paws -->
    <ellipse cx="-8" cy="26" rx="3" ry="2" fill="#ffb347"/>
    <ellipse cx="8" cy="26" rx="3" ry="2" fill="#ffb347"/>
  </g>
</svg>