<svg xmlns="http://www.w3.org/2000/svg" width="64" height="64" viewBox="0 0 64 64">
  <!-- Dog character -->
  <g transform="translate(32,32)">
    <!-- Head -->
    <ellipse cx="0" cy="-2" rx="16" ry="14" fill="#8B4513"/>
    
    <!-- Ears (floppy) -->
    <ellipse cx="-14" cy="-8" rx="6" ry="8" fill="#654321" transform="rotate(-20)"/>
    <ellipse cx="14" cy="-8" rx="6" ry="8" fill="#654321" transform="rotate(20)"/>
    
    <!-- Eyes -->
    <ellipse cx="-6" cy="-6" rx="3" ry="4" fill="#ffffff"/>
    <ellipse cx="6" cy="-6" rx="3" ry="4" fill="#ffffff"/>
    <ellipse cx="-6" cy="-5" rx="1.5" ry="2" fill="#000"/>
    <ellipse cx="6" cy="-5" rx="1.5" ry="2" fill="#000"/>
    <ellipse cx="-5.5" cy="-6" rx="0.8" ry="0.8" fill="#ffffff"/>
    <ellipse cx="6.5" cy="-6" rx="0.8" ry="0.8" fill="#ffffff"/>
    
    <!-- Snout -->
    <ellipse cx="0" cy="2" rx="8" ry="6" fill="#D2B48C"/>
    
    <!-- Nose -->
    <ellipse cx="0" cy="0" rx="2" ry="1.5" fill="#000"/>
    
    <!-- Mouth -->
    <path d="M0 2 Q-3 6 -6 5" stroke="#333" stroke-width="1.5" fill="none"/>
    <path d="M0 2 Q3 6 6 5" stroke="#333" stroke-width="1.5" fill="none"/>
    
    <!-- Tongue -->
    <ellipse cx="2" cy="8" rx="3" ry="2" fill="#ff69b4"/>
    
    <!-- Body -->
    <ellipse cx="0" cy="20" rx="14" ry="10" fill="#8B4513"/>
    
    <!-- Paws -->
    <ellipse cx="-10" cy="28" rx="4" ry="3" fill="#654321"/>
    <ellipse cx="10" cy="28" rx="4" ry="3" fill="#654321"/>
    
    <!-- Tail -->
    <ellipse cx="18" cy="22" rx="3" ry="6" fill="#654321" transform="rotate(30)"/>
  </g>
</svg>