<svg xmlns="http://www.w3.org/2000/svg" width="64" height="64" viewBox="0 0 64 64">
  <!-- Fox character -->
  <g transform="translate(32,32)">
    <!-- Head -->
    <ellipse cx="0" cy="-2" rx="15" ry="13" fill="#ff4500"/>
    
    <!-- Ears (pointed) -->
    <polygon points="-12,-12 -8,-20 -6,-12" fill="#ff4500"/>
    <polygon points="12,-12 8,-20 6,-12" fill="#ff4500"/>
    <polygon points="-10,-13 -8,-18 -7,-13" fill="#ffffff"/>
    <polygon points="10,-13 8,-18 7,-13" fill="#ffffff"/>
    
    <!-- Face mask (white) -->
    <ellipse cx="0" cy="2" rx="12" ry="10" fill="#ffffff"/>
    
    <!-- Eyes -->
    <ellipse cx="-6" cy="-4" rx="2.5" ry="3" fill="#000"/>
    <ellipse cx="6" cy="-4" rx="2.5" ry="3" fill="#000"/>
    <ellipse cx="-5.5" cy="-5" rx="0.8" ry="0.8" fill="#ffffff"/>
    <ellipse cx="6.5" cy="-5" rx="0.8" ry="0.8" fill="#ffffff"/>
    
    <!-- Snout -->
    <ellipse cx="0" cy="4" rx="4" ry="3" fill="#ffffff"/>
    
    <!-- Nose -->
    <ellipse cx="0" cy="2" rx="1.5" ry="1" fill="#000"/>
    
    <!-- Mouth -->
    <path d="M0 3 Q-2 6 -4 5" stroke="#333" stroke-width="1" fill="none"/>
    <path d="M0 3 Q2 6 4 5" stroke="#333" stroke-width="1" fill="none"/>
    
    <!-- Body -->
    <ellipse cx="0" cy="20" rx="12" ry="9" fill="#ff4500"/>
    <ellipse cx="0" cy="22" rx="8" ry="6" fill="#ffffff"/>
    
    <!-- Paws -->
    <ellipse cx="-8" cy="27" rx="3" ry="2" fill="#333"/>
    <ellipse cx="8" cy="27" rx="3" ry="2" fill="#333"/>
    
    <!-- Tail tip -->
    <ellipse cx="16" cy="24" rx="4" ry="2" fill="#ffffff" transform="rotate(45)"/>
  </g>
</svg>