<svg xmlns="http://www.w3.org/2000/svg" width="64" height="64" viewBox="0 0 64 64">
  <!-- Panda character -->
  <g transform="translate(32,32)">
    <!-- Head -->
    <ellipse cx="0" cy="-2" rx="16" ry="14" fill="#ffffff"/>
    
    <!-- Ear patches (black) -->
    <ellipse cx="-12" cy="-10" rx="6" ry="8" fill="#000000"/>
    <ellipse cx="12" cy="-10" rx="6" ry="8" fill="#000000"/>
    
    <!-- Eye patches (black) -->
    <ellipse cx="-6" cy="-6" rx="5" ry="6" fill="#000000"/>
    <ellipse cx="6" cy="-6" rx="5" ry="6" fill="#000000"/>
    
    <!-- Eyes (white) -->
    <ellipse cx="-6" cy="-6" rx="3" ry="4" fill="#ffffff"/>
    <ellipse cx="6" cy="-6" rx="3" ry="4" fill="#ffffff"/>
    <ellipse cx="-6" cy="-5" rx="1.5" ry="2" fill="#000"/>
    <ellipse cx="6" cy="-5" rx="1.5" ry="2" fill="#000"/>
    <ellipse cx="-5.5" cy="-6" rx="0.5" ry="0.5" fill="#ffffff"/>
    <ellipse cx="6.5" cy="-6" rx="0.5" ry="0.5" fill="#ffffff"/>
    
    <!-- Nose -->
    <ellipse cx="0" cy="2" rx="2" ry="1.5" fill="#000"/>
    
    <!-- Mouth -->
    <path d="M0 4 Q-3 7 -5 6" stroke="#333" stroke-width="1.5" fill="none"/>
    <path d="M0 4 Q3 7 5 6" stroke="#333" stroke-width="1.5" fill="none"/>
    
    <!-- Body -->
    <ellipse cx="0" cy="20" rx="13" ry="10" fill="#ffffff"/>
    
    <!-- Arms/Paws (black) -->
    <ellipse cx="-10" cy="18" rx="4" ry="6" fill="#000000"/>
    <ellipse cx="10" cy="18" rx="4" ry="6" fill="#000000"/>
    
    <!-- Feet -->
    <ellipse cx="-8" cy="28" rx="3" ry="2" fill="#000000"/>
    <ellipse cx="8" cy="28" rx="3" ry="2" fill="#000000"/>
  </g>
</svg>