<svg xmlns="http://www.w3.org/2000/svg" width="64" height="64" viewBox="0 0 64 64">
  <!-- Rabbit character -->
  <g transform="translate(32,32)">
    <!-- Head -->
    <ellipse cx="0" cy="0" rx="14" ry="12" fill="#ffffff"/>
    
    <!-- Ears -->
    <ellipse cx="-8" cy="-18" rx="3" ry="12" fill="#ffffff"/>
    <ellipse cx="8" cy="-18" rx="3" ry="12" fill="#ffffff"/>
    <ellipse cx="-8" cy="-16" rx="1.5" ry="8" fill="#ffb6c1"/>
    <ellipse cx="8" cy="-16" rx="1.5" ry="8" fill="#ffb6c1"/>
    
    <!-- Eyes -->
    <ellipse cx="-5" cy="-4" rx="3" ry="4" fill="#000"/>
    <ellipse cx="5" cy="-4" rx="3" ry="4" fill="#000"/>
    <ellipse cx="-4" cy="-5" rx="1" ry="1" fill="#ffffff"/>
    <ellipse cx="6" cy="-5" rx="1" ry="1" fill="#ffffff"/>
    
    <!-- Nose -->
    <ellipse cx="0" cy="2" rx="1" ry="0.8" fill="#ff69b4"/>
    
    <!-- Mouth -->
    <path d="M0 3 Q-2 6 -4 5" stroke="#333" stroke-width="1" fill="none"/>
    <path d="M0 3 Q2 6 4 5" stroke="#333" stroke-width="1" fill="none"/>
    
    <!-- Whiskers -->
    <line x1="-12" y1="0" x2="-8" y2="1" stroke="#333" stroke-width="0.8"/>
    <line x1="-12" y1="3" x2="-8" y2="3" stroke="#333" stroke-width="0.8"/>
    <line x1="12" y1="0" x2="8" y2="1" stroke="#333" stroke-width="0.8"/>
    <line x1="12" y1="3" x2="8" y2="3" stroke="#333" stroke-width="0.8"/>
    
    <!-- Body -->
    <ellipse cx="0" cy="18" rx="10" ry="8" fill="#ffffff"/>
    
    <!-- Front paws -->
    <ellipse cx="-6" cy="24" rx="2.5" ry="2" fill="#ffffff"/>
    <ellipse cx="6" cy="24" rx="2.5" ry="2" fill="#ffffff"/>
    
    <!-- Cheeks -->
    <ellipse cx="-10" cy="2" rx="2" ry="1.5" fill="#ffb6c1"/>
    <ellipse cx="10" cy="2" rx="2" ry="1.5" fill="#ffb6c1"/>
  </g>
</svg>